<mxfile host="app.diagrams.net" modified="2024-03-07T14:45:26.781Z" agent="Mozilla/5.0 (Windows NT 10.0; Win64; x64) AppleWebKit/537.36 (KHTML, like Gecko) Chrome/122.0.0.0 Safari/537.36" etag="I-FJdEkdLVZnSyl7-7KE" version="24.0.2" type="github">
  <diagram name="Page-1" id="tXZiaEcrUhBw9n6YbrBm">
    <mxGraphModel dx="1034" dy="454" grid="1" gridSize="10" guides="1" tooltips="1" connect="1" arrows="1" fold="1" page="1" pageScale="1" pageWidth="850" pageHeight="1100" math="0" shadow="0">
      <root>
        <mxCell id="0" />
        <mxCell id="1" parent="0" />
        <mxCell id="CJ1HN6qO8ug2FyTTPr0n-1" value="Transaction" style="rounded=0;whiteSpace=wrap;html=1;" vertex="1" parent="1">
          <mxGeometry x="350" y="210" width="120" height="60" as="geometry" />
        </mxCell>
        <mxCell id="CJ1HN6qO8ug2FyTTPr0n-3" value="user" style="rounded=0;whiteSpace=wrap;html=1;" vertex="1" parent="1">
          <mxGeometry x="80" y="210" width="120" height="60" as="geometry" />
        </mxCell>
        <mxCell id="CJ1HN6qO8ug2FyTTPr0n-4" value="doing" style="rhombus;whiteSpace=wrap;html=1;" vertex="1" parent="1">
          <mxGeometry x="230" y="200" width="80" height="80" as="geometry" />
        </mxCell>
        <mxCell id="CJ1HN6qO8ug2FyTTPr0n-8" value="have" style="rhombus;whiteSpace=wrap;html=1;" vertex="1" parent="1">
          <mxGeometry x="510" y="200" width="80" height="80" as="geometry" />
        </mxCell>
        <mxCell id="CJ1HN6qO8ug2FyTTPr0n-12" value="" style="endArrow=none;html=1;rounded=0;entryX=0;entryY=0.5;entryDx=0;entryDy=0;" edge="1" parent="1" target="CJ1HN6qO8ug2FyTTPr0n-4">
          <mxGeometry width="50" height="50" relative="1" as="geometry">
            <mxPoint x="200" y="240" as="sourcePoint" />
            <mxPoint x="250" y="190" as="targetPoint" />
          </mxGeometry>
        </mxCell>
        <mxCell id="CJ1HN6qO8ug2FyTTPr0n-14" value="" style="endArrow=none;html=1;rounded=0;entryX=0;entryY=0.5;entryDx=0;entryDy=0;" edge="1" parent="1" target="CJ1HN6qO8ug2FyTTPr0n-8">
          <mxGeometry width="50" height="50" relative="1" as="geometry">
            <mxPoint x="470" y="240" as="sourcePoint" />
            <mxPoint x="520" y="190" as="targetPoint" />
          </mxGeometry>
        </mxCell>
        <mxCell id="CJ1HN6qO8ug2FyTTPr0n-15" value="" style="endArrow=none;html=1;rounded=0;entryX=0;entryY=0.5;entryDx=0;entryDy=0;" edge="1" parent="1" target="CJ1HN6qO8ug2FyTTPr0n-1">
          <mxGeometry width="50" height="50" relative="1" as="geometry">
            <mxPoint x="310" y="240" as="sourcePoint" />
            <mxPoint x="360" y="190" as="targetPoint" />
          </mxGeometry>
        </mxCell>
        <mxCell id="CJ1HN6qO8ug2FyTTPr0n-17" value="" style="endArrow=none;html=1;rounded=0;entryX=0;entryY=0.5;entryDx=0;entryDy=0;" edge="1" parent="1" source="CJ1HN6qO8ug2FyTTPr0n-8" target="CJ1HN6qO8ug2FyTTPr0n-57">
          <mxGeometry width="50" height="50" relative="1" as="geometry">
            <mxPoint x="590" y="238" as="sourcePoint" />
            <mxPoint x="630" y="240" as="targetPoint" />
          </mxGeometry>
        </mxCell>
        <mxCell id="CJ1HN6qO8ug2FyTTPr0n-19" value="Email" style="ellipse;whiteSpace=wrap;html=1;" vertex="1" parent="1">
          <mxGeometry x="160" y="130" width="70" height="30" as="geometry" />
        </mxCell>
        <mxCell id="CJ1HN6qO8ug2FyTTPr0n-20" value="Phone" style="ellipse;whiteSpace=wrap;html=1;" vertex="1" parent="1">
          <mxGeometry x="48" y="310" width="70" height="30" as="geometry" />
        </mxCell>
        <mxCell id="CJ1HN6qO8ug2FyTTPr0n-22" value="Username" style="ellipse;whiteSpace=wrap;html=1;" vertex="1" parent="1">
          <mxGeometry x="158" y="310" width="70" height="30" as="geometry" />
        </mxCell>
        <mxCell id="CJ1HN6qO8ug2FyTTPr0n-24" value="" style="endArrow=none;html=1;rounded=0;" edge="1" parent="1">
          <mxGeometry width="50" height="50" relative="1" as="geometry">
            <mxPoint x="98" y="310" as="sourcePoint" />
            <mxPoint x="138" y="270" as="targetPoint" />
          </mxGeometry>
        </mxCell>
        <mxCell id="CJ1HN6qO8ug2FyTTPr0n-25" value="" style="endArrow=none;html=1;rounded=0;" edge="1" parent="1">
          <mxGeometry width="50" height="50" relative="1" as="geometry">
            <mxPoint x="178" y="310" as="sourcePoint" />
            <mxPoint x="138" y="270" as="targetPoint" />
          </mxGeometry>
        </mxCell>
        <mxCell id="CJ1HN6qO8ug2FyTTPr0n-27" value="" style="endArrow=none;html=1;rounded=0;" edge="1" parent="1">
          <mxGeometry width="50" height="50" relative="1" as="geometry">
            <mxPoint x="150" y="210" as="sourcePoint" />
            <mxPoint x="200" y="160" as="targetPoint" />
          </mxGeometry>
        </mxCell>
        <mxCell id="CJ1HN6qO8ug2FyTTPr0n-29" value="" style="endArrow=none;html=1;rounded=0;entryX=0;entryY=0;entryDx=0;entryDy=0;" edge="1" parent="1" source="CJ1HN6qO8ug2FyTTPr0n-18">
          <mxGeometry width="50" height="50" relative="1" as="geometry">
            <mxPoint x="150" y="210" as="sourcePoint" />
            <mxPoint x="100" y="160" as="targetPoint" />
          </mxGeometry>
        </mxCell>
        <mxCell id="CJ1HN6qO8ug2FyTTPr0n-30" value="" style="endArrow=none;html=1;rounded=0;entryX=0;entryY=0;entryDx=0;entryDy=0;" edge="1" parent="1" target="CJ1HN6qO8ug2FyTTPr0n-18">
          <mxGeometry width="50" height="50" relative="1" as="geometry">
            <mxPoint x="150" y="210" as="sourcePoint" />
            <mxPoint x="100" y="160" as="targetPoint" />
          </mxGeometry>
        </mxCell>
        <mxCell id="CJ1HN6qO8ug2FyTTPr0n-18" value="&lt;u&gt;User ID&lt;/u&gt;" style="ellipse;whiteSpace=wrap;html=1;" vertex="1" parent="1">
          <mxGeometry x="48" y="130" width="80" height="30" as="geometry" />
        </mxCell>
        <mxCell id="CJ1HN6qO8ug2FyTTPr0n-31" value="Transaction Date" style="ellipse;whiteSpace=wrap;html=1;" vertex="1" parent="1">
          <mxGeometry x="290" y="310" width="100" height="30" as="geometry" />
        </mxCell>
        <mxCell id="CJ1HN6qO8ug2FyTTPr0n-32" value="&lt;u&gt;User ID&lt;/u&gt;" style="ellipse;whiteSpace=wrap;html=1;" vertex="1" parent="1">
          <mxGeometry x="470" y="130" width="80" height="30" as="geometry" />
        </mxCell>
        <mxCell id="CJ1HN6qO8ug2FyTTPr0n-33" value="Amount" style="ellipse;whiteSpace=wrap;html=1;" vertex="1" parent="1">
          <mxGeometry x="390" y="130" width="60" height="30" as="geometry" />
        </mxCell>
        <mxCell id="CJ1HN6qO8ug2FyTTPr0n-34" value="&lt;u&gt;Transaction ID&lt;/u&gt;" style="ellipse;whiteSpace=wrap;html=1;" vertex="1" parent="1">
          <mxGeometry x="270" y="130" width="90" height="30" as="geometry" />
        </mxCell>
        <mxCell id="CJ1HN6qO8ug2FyTTPr0n-35" value="&lt;u&gt;Driver ID&lt;/u&gt;" style="ellipse;whiteSpace=wrap;html=1;" vertex="1" parent="1">
          <mxGeometry x="425" y="310" width="75" height="30" as="geometry" />
        </mxCell>
        <mxCell id="CJ1HN6qO8ug2FyTTPr0n-38" value="" style="endArrow=none;html=1;rounded=0;entryX=0.5;entryY=1;entryDx=0;entryDy=0;" edge="1" parent="1" target="CJ1HN6qO8ug2FyTTPr0n-1">
          <mxGeometry width="50" height="50" relative="1" as="geometry">
            <mxPoint x="350" y="310" as="sourcePoint" />
            <mxPoint x="400" y="260" as="targetPoint" />
          </mxGeometry>
        </mxCell>
        <mxCell id="CJ1HN6qO8ug2FyTTPr0n-39" value="" style="endArrow=none;html=1;rounded=0;exitX=0.621;exitY=0.017;exitDx=0;exitDy=0;exitPerimeter=0;" edge="1" parent="1" source="CJ1HN6qO8ug2FyTTPr0n-1">
          <mxGeometry width="50" height="50" relative="1" as="geometry">
            <mxPoint x="390" y="240" as="sourcePoint" />
            <mxPoint x="320" y="160" as="targetPoint" />
          </mxGeometry>
        </mxCell>
        <mxCell id="CJ1HN6qO8ug2FyTTPr0n-40" value="" style="endArrow=none;html=1;rounded=0;exitX=0.583;exitY=0.017;exitDx=0;exitDy=0;exitPerimeter=0;" edge="1" parent="1" source="CJ1HN6qO8ug2FyTTPr0n-1">
          <mxGeometry width="50" height="50" relative="1" as="geometry">
            <mxPoint x="419.5" y="200" as="sourcePoint" />
            <mxPoint x="419.5" y="160" as="targetPoint" />
          </mxGeometry>
        </mxCell>
        <mxCell id="CJ1HN6qO8ug2FyTTPr0n-41" value="" style="endArrow=none;html=1;rounded=0;entryX=0.5;entryY=1;entryDx=0;entryDy=0;" edge="1" parent="1" target="CJ1HN6qO8ug2FyTTPr0n-32">
          <mxGeometry width="50" height="50" relative="1" as="geometry">
            <mxPoint x="420" y="210" as="sourcePoint" />
            <mxPoint x="470" y="160" as="targetPoint" />
          </mxGeometry>
        </mxCell>
        <mxCell id="CJ1HN6qO8ug2FyTTPr0n-43" value="" style="endArrow=none;html=1;rounded=0;entryX=0.5;entryY=0;entryDx=0;entryDy=0;" edge="1" parent="1" target="CJ1HN6qO8ug2FyTTPr0n-35">
          <mxGeometry width="50" height="50" relative="1" as="geometry">
            <mxPoint x="410" y="270" as="sourcePoint" />
            <mxPoint x="460" y="220" as="targetPoint" />
          </mxGeometry>
        </mxCell>
        <mxCell id="CJ1HN6qO8ug2FyTTPr0n-55" value="" style="endArrow=none;html=1;rounded=0;" edge="1" parent="1">
          <mxGeometry width="50" height="50" relative="1" as="geometry">
            <mxPoint x="410" y="360" as="sourcePoint" />
            <mxPoint x="410" y="270" as="targetPoint" />
          </mxGeometry>
        </mxCell>
        <mxCell id="CJ1HN6qO8ug2FyTTPr0n-76" value="1" style="edgeLabel;html=1;align=center;verticalAlign=middle;resizable=0;points=[];" vertex="1" connectable="0" parent="CJ1HN6qO8ug2FyTTPr0n-55">
          <mxGeometry x="-0.8556" y="-9" relative="1" as="geometry">
            <mxPoint x="1" as="offset" />
          </mxGeometry>
        </mxCell>
        <mxCell id="CJ1HN6qO8ug2FyTTPr0n-56" value="with" style="rhombus;whiteSpace=wrap;html=1;" vertex="1" parent="1">
          <mxGeometry x="375" y="360" width="70" height="50" as="geometry" />
        </mxCell>
        <mxCell id="CJ1HN6qO8ug2FyTTPr0n-58" value="" style="endArrow=none;html=1;rounded=0;" edge="1" parent="1">
          <mxGeometry width="50" height="50" relative="1" as="geometry">
            <mxPoint x="410" y="490" as="sourcePoint" />
            <mxPoint x="410.40999999999997" y="408" as="targetPoint" />
          </mxGeometry>
        </mxCell>
        <mxCell id="CJ1HN6qO8ug2FyTTPr0n-57" value="Service/ Product" style="rounded=0;whiteSpace=wrap;html=1;" vertex="1" parent="1">
          <mxGeometry x="643" y="223" width="110" height="30" as="geometry" />
        </mxCell>
        <mxCell id="CJ1HN6qO8ug2FyTTPr0n-60" value="GoFood" style="ellipse;whiteSpace=wrap;html=1;" vertex="1" parent="1">
          <mxGeometry x="558" y="150" width="55" height="30" as="geometry" />
        </mxCell>
        <mxCell id="CJ1HN6qO8ug2FyTTPr0n-61" value="GoClean" style="ellipse;whiteSpace=wrap;html=1;" vertex="1" parent="1">
          <mxGeometry x="795" y="140" width="55" height="30" as="geometry" />
        </mxCell>
        <mxCell id="CJ1HN6qO8ug2FyTTPr0n-62" value="GoCar" style="ellipse;whiteSpace=wrap;html=1;" vertex="1" parent="1">
          <mxGeometry x="615.5" y="140" width="55" height="30" as="geometry" />
        </mxCell>
        <mxCell id="CJ1HN6qO8ug2FyTTPr0n-64" value="Go Bike" style="ellipse;whiteSpace=wrap;html=1;" vertex="1" parent="1">
          <mxGeometry x="730" y="130" width="55" height="30" as="geometry" />
        </mxCell>
        <mxCell id="CJ1HN6qO8ug2FyTTPr0n-65" value="" style="endArrow=none;html=1;rounded=0;exitX=0.5;exitY=0;exitDx=0;exitDy=0;" edge="1" parent="1" source="CJ1HN6qO8ug2FyTTPr0n-57">
          <mxGeometry width="50" height="50" relative="1" as="geometry">
            <mxPoint x="643.0033754431765" y="222.99564665769876" as="sourcePoint" />
            <mxPoint x="590" y="180" as="targetPoint" />
          </mxGeometry>
        </mxCell>
        <mxCell id="CJ1HN6qO8ug2FyTTPr0n-66" value="" style="endArrow=none;html=1;rounded=0;exitX=0.5;exitY=0;exitDx=0;exitDy=0;" edge="1" parent="1" source="CJ1HN6qO8ug2FyTTPr0n-57">
          <mxGeometry width="50" height="50" relative="1" as="geometry">
            <mxPoint x="628" y="220" as="sourcePoint" />
            <mxPoint x="640" y="170" as="targetPoint" />
          </mxGeometry>
        </mxCell>
        <mxCell id="CJ1HN6qO8ug2FyTTPr0n-67" value="" style="endArrow=none;html=1;rounded=0;" edge="1" parent="1" source="CJ1HN6qO8ug2FyTTPr0n-63">
          <mxGeometry width="50" height="50" relative="1" as="geometry">
            <mxPoint x="697.5" y="223" as="sourcePoint" />
            <mxPoint x="697.5" y="163" as="targetPoint" />
          </mxGeometry>
        </mxCell>
        <mxCell id="CJ1HN6qO8ug2FyTTPr0n-68" value="" style="endArrow=none;html=1;rounded=0;exitX=0.5;exitY=0;exitDx=0;exitDy=0;" edge="1" parent="1" source="CJ1HN6qO8ug2FyTTPr0n-57">
          <mxGeometry width="50" height="50" relative="1" as="geometry">
            <mxPoint x="765.5" y="220" as="sourcePoint" />
            <mxPoint x="750" y="160" as="targetPoint" />
          </mxGeometry>
        </mxCell>
        <mxCell id="CJ1HN6qO8ug2FyTTPr0n-69" value="" style="endArrow=none;html=1;rounded=0;exitX=0.5;exitY=0;exitDx=0;exitDy=0;" edge="1" parent="1" source="CJ1HN6qO8ug2FyTTPr0n-57">
          <mxGeometry width="50" height="50" relative="1" as="geometry">
            <mxPoint x="798" y="180" as="sourcePoint" />
            <mxPoint x="810" y="170" as="targetPoint" />
          </mxGeometry>
        </mxCell>
        <mxCell id="CJ1HN6qO8ug2FyTTPr0n-71" value="M" style="text;html=1;align=center;verticalAlign=middle;resizable=0;points=[];autosize=1;strokeColor=none;fillColor=none;" vertex="1" parent="1">
          <mxGeometry x="325" y="208" width="30" height="30" as="geometry" />
        </mxCell>
        <mxCell id="CJ1HN6qO8ug2FyTTPr0n-73" value="1" style="text;html=1;align=center;verticalAlign=middle;resizable=0;points=[];autosize=1;strokeColor=none;fillColor=none;" vertex="1" parent="1">
          <mxGeometry x="200" y="210" width="30" height="30" as="geometry" />
        </mxCell>
        <mxCell id="CJ1HN6qO8ug2FyTTPr0n-74" value="1" style="text;html=1;align=center;verticalAlign=middle;resizable=0;points=[];autosize=1;strokeColor=none;fillColor=none;" vertex="1" parent="1">
          <mxGeometry x="465" y="208" width="30" height="30" as="geometry" />
        </mxCell>
        <mxCell id="CJ1HN6qO8ug2FyTTPr0n-75" value="M" style="text;html=1;align=center;verticalAlign=middle;resizable=0;points=[];autosize=1;strokeColor=none;fillColor=none;rotation=0;" vertex="1" parent="1">
          <mxGeometry x="613" y="208" width="30" height="30" as="geometry" />
        </mxCell>
        <mxCell id="CJ1HN6qO8ug2FyTTPr0n-79" value="&lt;font style=&quot;font-size: 11px;&quot;&gt;1&lt;/font&gt;" style="text;html=1;align=center;verticalAlign=middle;resizable=0;points=[];autosize=1;strokeColor=none;fillColor=none;" vertex="1" parent="1">
          <mxGeometry x="410" y="430" width="30" height="30" as="geometry" />
        </mxCell>
        <mxCell id="CJ1HN6qO8ug2FyTTPr0n-91" value="Driver" style="rounded=0;whiteSpace=wrap;html=1;" vertex="1" parent="1">
          <mxGeometry x="348" y="492" width="120" height="60" as="geometry" />
        </mxCell>
        <mxCell id="CJ1HN6qO8ug2FyTTPr0n-92" value="Status" style="ellipse;whiteSpace=wrap;html=1;" vertex="1" parent="1">
          <mxGeometry x="438" y="422" width="70" height="30" as="geometry" />
        </mxCell>
        <mxCell id="CJ1HN6qO8ug2FyTTPr0n-93" value="Name" style="ellipse;whiteSpace=wrap;html=1;" vertex="1" parent="1">
          <mxGeometry x="328" y="422" width="70" height="30" as="geometry" />
        </mxCell>
        <mxCell id="CJ1HN6qO8ug2FyTTPr0n-94" value="Vehicle type" style="ellipse;whiteSpace=wrap;html=1;" vertex="1" parent="1">
          <mxGeometry x="278" y="592" width="80" height="30" as="geometry" />
        </mxCell>
        <mxCell id="CJ1HN6qO8ug2FyTTPr0n-95" value="Vehicle plate" style="ellipse;whiteSpace=wrap;html=1;" vertex="1" parent="1">
          <mxGeometry x="368" y="592" width="80" height="30" as="geometry" />
        </mxCell>
        <mxCell id="CJ1HN6qO8ug2FyTTPr0n-96" value="&lt;u&gt;Driver ID&lt;/u&gt;" style="ellipse;whiteSpace=wrap;html=1;" vertex="1" parent="1">
          <mxGeometry x="458" y="592" width="80" height="30" as="geometry" />
        </mxCell>
        <mxCell id="CJ1HN6qO8ug2FyTTPr0n-97" value="" style="endArrow=none;html=1;rounded=0;entryX=0.5;entryY=1;entryDx=0;entryDy=0;exitX=0.5;exitY=0;exitDx=0;exitDy=0;" edge="1" parent="1" source="CJ1HN6qO8ug2FyTTPr0n-94" target="CJ1HN6qO8ug2FyTTPr0n-91">
          <mxGeometry width="50" height="50" relative="1" as="geometry">
            <mxPoint x="318" y="602" as="sourcePoint" />
            <mxPoint x="368" y="552" as="targetPoint" />
          </mxGeometry>
        </mxCell>
        <mxCell id="CJ1HN6qO8ug2FyTTPr0n-98" value="" style="endArrow=none;html=1;rounded=0;exitX=0.5;exitY=0;exitDx=0;exitDy=0;" edge="1" parent="1" source="CJ1HN6qO8ug2FyTTPr0n-96">
          <mxGeometry width="50" height="50" relative="1" as="geometry">
            <mxPoint x="358" y="602" as="sourcePoint" />
            <mxPoint x="408" y="552" as="targetPoint" />
          </mxGeometry>
        </mxCell>
        <mxCell id="CJ1HN6qO8ug2FyTTPr0n-99" value="" style="endArrow=none;html=1;rounded=0;exitX=0.5;exitY=0;exitDx=0;exitDy=0;" edge="1" parent="1" source="CJ1HN6qO8ug2FyTTPr0n-95">
          <mxGeometry width="50" height="50" relative="1" as="geometry">
            <mxPoint x="358" y="602" as="sourcePoint" />
            <mxPoint x="408" y="552" as="targetPoint" />
          </mxGeometry>
        </mxCell>
        <mxCell id="CJ1HN6qO8ug2FyTTPr0n-100" value="" style="endArrow=none;html=1;rounded=0;" edge="1" parent="1">
          <mxGeometry width="50" height="50" relative="1" as="geometry">
            <mxPoint x="408" y="492" as="sourcePoint" />
            <mxPoint x="468" y="452" as="targetPoint" />
          </mxGeometry>
        </mxCell>
        <mxCell id="CJ1HN6qO8ug2FyTTPr0n-101" value="" style="endArrow=none;html=1;rounded=0;exitX=0.5;exitY=0;exitDx=0;exitDy=0;" edge="1" parent="1" source="CJ1HN6qO8ug2FyTTPr0n-91">
          <mxGeometry width="50" height="50" relative="1" as="geometry">
            <mxPoint x="318" y="502" as="sourcePoint" />
            <mxPoint x="368" y="452" as="targetPoint" />
          </mxGeometry>
        </mxCell>
        <mxCell id="CJ1HN6qO8ug2FyTTPr0n-106" value="" style="endArrow=none;html=1;rounded=0;" edge="1" parent="1">
          <mxGeometry width="50" height="50" relative="1" as="geometry">
            <mxPoint x="140" y="530" as="sourcePoint" />
            <mxPoint x="140" y="270" as="targetPoint" />
          </mxGeometry>
        </mxCell>
        <mxCell id="CJ1HN6qO8ug2FyTTPr0n-118" value="" style="endArrow=none;html=1;rounded=0;entryX=-0.029;entryY=0.633;entryDx=0;entryDy=0;entryPerimeter=0;" edge="1" parent="1" source="CJ1HN6qO8ug2FyTTPr0n-119" target="CJ1HN6qO8ug2FyTTPr0n-91">
          <mxGeometry width="50" height="50" relative="1" as="geometry">
            <mxPoint x="140" y="530" as="sourcePoint" />
            <mxPoint x="190" y="480" as="targetPoint" />
          </mxGeometry>
        </mxCell>
        <mxCell id="CJ1HN6qO8ug2FyTTPr0n-120" value="" style="endArrow=none;html=1;rounded=0;entryX=0;entryY=0.5;entryDx=0;entryDy=0;" edge="1" parent="1" target="CJ1HN6qO8ug2FyTTPr0n-119">
          <mxGeometry width="50" height="50" relative="1" as="geometry">
            <mxPoint x="140" y="530" as="sourcePoint" />
            <mxPoint x="345" y="530" as="targetPoint" />
          </mxGeometry>
        </mxCell>
        <mxCell id="CJ1HN6qO8ug2FyTTPr0n-119" value="" style="rhombus;whiteSpace=wrap;html=1;" vertex="1" parent="1">
          <mxGeometry x="200" y="492" width="80" height="80" as="geometry" />
        </mxCell>
        <mxCell id="CJ1HN6qO8ug2FyTTPr0n-121" value="1" style="text;html=1;align=center;verticalAlign=middle;resizable=0;points=[];autosize=1;strokeColor=none;fillColor=none;" vertex="1" parent="1">
          <mxGeometry x="180" y="507" width="30" height="30" as="geometry" />
        </mxCell>
        <mxCell id="CJ1HN6qO8ug2FyTTPr0n-122" value="M" style="text;html=1;align=center;verticalAlign=middle;resizable=0;points=[];autosize=1;strokeColor=none;fillColor=none;" vertex="1" parent="1">
          <mxGeometry x="325" y="508" width="30" height="30" as="geometry" />
        </mxCell>
        <mxCell id="CJ1HN6qO8ug2FyTTPr0n-123" value="" style="endArrow=none;html=1;rounded=0;" edge="1" parent="1" target="CJ1HN6qO8ug2FyTTPr0n-63">
          <mxGeometry width="50" height="50" relative="1" as="geometry">
            <mxPoint x="697.5" y="223" as="sourcePoint" />
            <mxPoint x="697.5" y="163" as="targetPoint" />
          </mxGeometry>
        </mxCell>
        <mxCell id="CJ1HN6qO8ug2FyTTPr0n-63" value="GoMart" style="ellipse;whiteSpace=wrap;html=1;" vertex="1" parent="1">
          <mxGeometry x="670.5" y="130" width="55" height="30" as="geometry" />
        </mxCell>
        <mxCell id="CJ1HN6qO8ug2FyTTPr0n-124" value="" style="endArrow=none;html=1;rounded=0;" edge="1" parent="1">
          <mxGeometry width="50" height="50" relative="1" as="geometry">
            <mxPoint x="696" y="530" as="sourcePoint" />
            <mxPoint x="696" y="253" as="targetPoint" />
          </mxGeometry>
        </mxCell>
        <mxCell id="CJ1HN6qO8ug2FyTTPr0n-125" value="" style="endArrow=none;html=1;rounded=0;entryX=1.004;entryY=0.642;entryDx=0;entryDy=0;entryPerimeter=0;" edge="1" parent="1" source="CJ1HN6qO8ug2FyTTPr0n-127" target="CJ1HN6qO8ug2FyTTPr0n-91">
          <mxGeometry width="50" height="50" relative="1" as="geometry">
            <mxPoint x="696" y="513" as="sourcePoint" />
            <mxPoint x="901" y="513" as="targetPoint" />
          </mxGeometry>
        </mxCell>
        <mxCell id="CJ1HN6qO8ug2FyTTPr0n-126" value="" style="endArrow=none;html=1;rounded=0;entryX=0;entryY=0.5;entryDx=0;entryDy=0;" edge="1" parent="1" target="CJ1HN6qO8ug2FyTTPr0n-127" source="CJ1HN6qO8ug2FyTTPr0n-129">
          <mxGeometry width="50" height="50" relative="1" as="geometry">
            <mxPoint x="696" y="513" as="sourcePoint" />
            <mxPoint x="901" y="513" as="targetPoint" />
          </mxGeometry>
        </mxCell>
        <mxCell id="CJ1HN6qO8ug2FyTTPr0n-127" value="work as" style="rhombus;whiteSpace=wrap;html=1;" vertex="1" parent="1">
          <mxGeometry x="533" y="492" width="80" height="80" as="geometry" />
        </mxCell>
        <mxCell id="CJ1HN6qO8ug2FyTTPr0n-132" value="" style="endArrow=none;html=1;rounded=0;entryX=-0.167;entryY=1;entryDx=0;entryDy=0;entryPerimeter=0;" edge="1" parent="1" source="CJ1HN6qO8ug2FyTTPr0n-130">
          <mxGeometry width="50" height="50" relative="1" as="geometry">
            <mxPoint x="700" y="533" as="sourcePoint" />
            <mxPoint x="613" y="533" as="targetPoint" />
          </mxGeometry>
        </mxCell>
        <mxCell id="CJ1HN6qO8ug2FyTTPr0n-129" value="1" style="text;html=1;align=center;verticalAlign=middle;resizable=0;points=[];autosize=1;strokeColor=none;fillColor=none;" vertex="1" parent="1">
          <mxGeometry x="510" y="507" width="30" height="30" as="geometry" />
        </mxCell>
        <mxCell id="CJ1HN6qO8ug2FyTTPr0n-135" value="" style="endArrow=none;html=1;rounded=0;entryX=0.533;entryY=0.9;entryDx=0;entryDy=0;entryPerimeter=0;" edge="1" parent="1">
          <mxGeometry width="50" height="50" relative="1" as="geometry">
            <mxPoint x="697.01" y="531.5" as="sourcePoint" />
            <mxPoint x="613" y="532.5" as="targetPoint" />
            <Array as="points">
              <mxPoint x="647.01" y="532.5" />
            </Array>
          </mxGeometry>
        </mxCell>
        <mxCell id="CJ1HN6qO8ug2FyTTPr0n-130" value="1" style="text;html=1;align=center;verticalAlign=middle;resizable=0;points=[];autosize=1;strokeColor=none;fillColor=none;" vertex="1" parent="1">
          <mxGeometry x="600" y="507" width="30" height="30" as="geometry" />
        </mxCell>
      </root>
    </mxGraphModel>
  </diagram>
</mxfile>
